<?xml version="1.0" standalone="no"?><!DOCTYPE svg PUBLIC "-//W3C//DTD SVG 1.1//EN" "http://www.w3.org/Graphics/SVG/1.1/DTD/svg11.dtd"><svg t="1659942238977" class="icon" viewBox="0 0 1024 1024" version="1.1" xmlns="http://www.w3.org/2000/svg" p-id="3110" xmlns:xlink="http://www.w3.org/1999/xlink" width="200" height="200"><defs><style type="text/css"></style></defs><path d="M839.580657 243.938697A135.270746 135.270746 0 0 1 879.260076 339.980926v548.748328a135.270746 135.270746 0 0 1-135.270746 135.270746H202.906345a135.270746 135.270746 0 0 1-135.270746-135.270746v-721.44398a135.270746 135.270746 0 0 1 135.270746-135.270746h368.387332a135.270746 135.270746 0 0 1 95.591327 39.679418l59.519129 59.068226a22.545124 22.545124 0 0 1 0 32.014077L483.367692 405.81269a45.090249 45.090249 0 1 0 63.577251 63.57725L789.079579 225.451695a22.545124 22.545124 0 0 1 32.014076 0z m-135.270746-209.218755l216.433194 216.433194a20.290612 20.290612 0 0 0 34.719491-14.428879V20.291063a20.290612 20.290612 0 0 0-19.839709-20.290612h-216.433194a20.290612 20.290612 0 0 0-14.42888 34.719491z" fill="#3E2AD1" p-id="3111"></path></svg>